<mxfile host="Electron" modified="2023-08-22T11:43:49.604Z" agent="Mozilla/5.0 (Windows NT 10.0; Win64; x64) AppleWebKit/537.36 (KHTML, like Gecko) draw.io/21.6.5 Chrome/114.0.5735.243 Electron/25.3.1 Safari/537.36" etag="Wg-vep8Rv86w0g1hzSOU" version="21.6.5" type="device">
  <diagram id="C5RBs43oDa-KdzZeNtuy" name="Page-1">
    <mxGraphModel dx="4553" dy="59" grid="0" gridSize="10" guides="1" tooltips="1" connect="1" arrows="1" fold="1" page="1" pageScale="1" pageWidth="827" pageHeight="1169" math="0" shadow="0">
      <root>
        <mxCell id="WIyWlLk6GJQsqaUBKTNV-0" />
        <mxCell id="WIyWlLk6GJQsqaUBKTNV-1" parent="WIyWlLk6GJQsqaUBKTNV-0" />
        <mxCell id="ZxPAX89eifIWjqfLQN8r-83" value="" style="rounded=0;whiteSpace=wrap;html=1;fillStyle=hatch;strokeColor=#009900;strokeWidth=4;fontSize=20;fillColor=none;dashed=1;" parent="WIyWlLk6GJQsqaUBKTNV-1" vertex="1">
          <mxGeometry x="-2472" y="1173" width="810" height="627" as="geometry" />
        </mxCell>
        <mxCell id="ZxPAX89eifIWjqfLQN8r-81" value="" style="rounded=0;whiteSpace=wrap;html=1;dashed=1;fillStyle=hatch;strokeColor=#990099;strokeWidth=4;fontSize=20;fillColor=none;" parent="WIyWlLk6GJQsqaUBKTNV-1" vertex="1">
          <mxGeometry x="-2472" y="1821" width="810" height="515" as="geometry" />
        </mxCell>
        <mxCell id="ZxPAX89eifIWjqfLQN8r-42" value="&lt;span style=&quot;border-color: var(--border-color); font-size: 20px;&quot;&gt;U&lt;/span&gt;&lt;span style=&quot;border-color: var(--border-color); font-size: 13.8889px;&quot;&gt;&lt;sub style=&quot;border-color: var(--border-color); font-size: 15px;&quot;&gt;R&lt;/sub&gt;&lt;/span&gt;&lt;span style=&quot;border-color: var(--border-color); font-size: 20px;&quot;&gt;(x,y,0) del haz de referencia&lt;/span&gt;&lt;span style=&quot;font-size: 20px;&quot;&gt;&lt;sub&gt;&lt;sub&gt;&lt;br&gt;&lt;/sub&gt;&lt;/sub&gt;&lt;/span&gt;" style="shape=parallelogram;perimeter=parallelogramPerimeter;whiteSpace=wrap;html=1;fixedSize=1;fontSize=15;fillColor=#FFFFFF;strokeColor=#000000;strokeWidth=2;" parent="WIyWlLk6GJQsqaUBKTNV-1" vertex="1">
          <mxGeometry x="-2442.04" y="1440" width="314.09" height="46" as="geometry" />
        </mxCell>
        <mxCell id="ZxPAX89eifIWjqfLQN8r-9" value="" style="edgeStyle=orthogonalEdgeStyle;rounded=0;orthogonalLoop=1;jettySize=auto;html=1;strokeWidth=3;" parent="WIyWlLk6GJQsqaUBKTNV-1" source="ZxPAX89eifIWjqfLQN8r-3" target="ZxPAX89eifIWjqfLQN8r-8" edge="1">
          <mxGeometry relative="1" as="geometry" />
        </mxCell>
        <mxCell id="ZxPAX89eifIWjqfLQN8r-3" value="&lt;span style=&quot;font-size: 20px;&quot;&gt;&lt;b&gt;INICIO&lt;/b&gt;&lt;/span&gt;" style="ellipse;whiteSpace=wrap;html=1;align=center;strokeWidth=2;fontSize=15;fillColor=#66B2FF;strokeColor=#000000;" parent="WIyWlLk6GJQsqaUBKTNV-1" vertex="1">
          <mxGeometry x="-2327.619119619219" y="1186" width="85.25214536358267" height="65.07055491809282" as="geometry" />
        </mxCell>
        <mxCell id="ZxPAX89eifIWjqfLQN8r-11" style="edgeStyle=orthogonalEdgeStyle;rounded=0;orthogonalLoop=1;jettySize=auto;html=1;strokeWidth=3;fontSize=20;" parent="WIyWlLk6GJQsqaUBKTNV-1" source="ZxPAX89eifIWjqfLQN8r-8" target="ZxPAX89eifIWjqfLQN8r-42" edge="1">
          <mxGeometry relative="1" as="geometry">
            <mxPoint x="-2282.54" y="1456" as="targetPoint" />
          </mxGeometry>
        </mxCell>
        <mxCell id="ZxPAX89eifIWjqfLQN8r-8" value="&lt;span style=&quot;border-color: var(--border-color); font-size: 20px;&quot;&gt;U&lt;/span&gt;&lt;span style=&quot;border-color: var(--border-color);&quot;&gt;&lt;sub&gt;&lt;font style=&quot;font-size: 15px;&quot;&gt;O&lt;/font&gt;&lt;/sub&gt;&lt;/span&gt;&lt;span style=&quot;border-color: var(--border-color); font-size: 20px;&quot;&gt;(x,y,0) del&amp;nbsp;&lt;/span&gt;&lt;span style=&quot;font-size: 20px;&quot;&gt;objeto sintético&lt;/span&gt;&lt;span style=&quot;font-size: 20px;&quot;&gt;&lt;sub&gt;&lt;sub&gt;&lt;br&gt;&lt;/sub&gt;&lt;/sub&gt;&lt;/span&gt;" style="shape=parallelogram;perimeter=parallelogramPerimeter;whiteSpace=wrap;html=1;fixedSize=1;fontSize=15;fillColor=#FFFFFF;strokeColor=#000000;strokeWidth=2;" parent="WIyWlLk6GJQsqaUBKTNV-1" vertex="1">
          <mxGeometry x="-2434.99" y="1330" width="300" height="50" as="geometry" />
        </mxCell>
        <mxCell id="ZxPAX89eifIWjqfLQN8r-15" value="" style="edgeStyle=orthogonalEdgeStyle;rounded=0;orthogonalLoop=1;jettySize=auto;html=1;strokeWidth=3;fontSize=15;startArrow=none;" parent="WIyWlLk6GJQsqaUBKTNV-1" source="ZxPAX89eifIWjqfLQN8r-42" target="ZxPAX89eifIWjqfLQN8r-30" edge="1">
          <mxGeometry relative="1" as="geometry">
            <mxPoint x="-2282.54" y="1506" as="sourcePoint" />
            <mxPoint x="-2282.4733333333334" y="1640.0558229381527" as="targetPoint" />
          </mxGeometry>
        </mxCell>
        <mxCell id="ZxPAX89eifIWjqfLQN8r-29" value="" style="edgeStyle=orthogonalEdgeStyle;rounded=0;orthogonalLoop=1;jettySize=auto;html=1;strokeWidth=3;fontSize=20;" parent="WIyWlLk6GJQsqaUBKTNV-1" target="ZxPAX89eifIWjqfLQN8r-28" edge="1">
          <mxGeometry relative="1" as="geometry">
            <mxPoint x="-2280.97" y="1903.9999999999998" as="sourcePoint" />
          </mxGeometry>
        </mxCell>
        <mxCell id="ZxPAX89eifIWjqfLQN8r-32" value="" style="edgeStyle=orthogonalEdgeStyle;rounded=0;orthogonalLoop=1;jettySize=auto;html=1;strokeWidth=3;fontSize=20;" parent="WIyWlLk6GJQsqaUBKTNV-1" source="ZxPAX89eifIWjqfLQN8r-28" target="ZxPAX89eifIWjqfLQN8r-55" edge="1">
          <mxGeometry relative="1" as="geometry">
            <mxPoint x="-2279.9899999999993" y="2133" as="targetPoint" />
          </mxGeometry>
        </mxCell>
        <mxCell id="ZxPAX89eifIWjqfLQN8r-28" value="&lt;font style=&quot;font-size: 20px;&quot;&gt;¿z=0?&lt;/font&gt;" style="rhombus;whiteSpace=wrap;html=1;fontSize=15;fillColor=#FFFFFF;strokeColor=#000000;strokeWidth=2;" parent="WIyWlLk6GJQsqaUBKTNV-1" vertex="1">
          <mxGeometry x="-2330.9699999999993" y="1968" width="100" height="100" as="geometry" />
        </mxCell>
        <mxCell id="ZxPAX89eifIWjqfLQN8r-62" value="" style="edgeStyle=orthogonalEdgeStyle;rounded=0;orthogonalLoop=1;jettySize=auto;html=1;strokeWidth=3;fontSize=19;" parent="WIyWlLk6GJQsqaUBKTNV-1" source="ZxPAX89eifIWjqfLQN8r-30" target="ZxPAX89eifIWjqfLQN8r-63" edge="1">
          <mxGeometry relative="1" as="geometry">
            <mxPoint x="-2002.14" y="1606" as="targetPoint" />
          </mxGeometry>
        </mxCell>
        <mxCell id="ZxPAX89eifIWjqfLQN8r-30" value="&lt;font style=&quot;font-size: 20px;&quot;&gt;¿z=0?&lt;/font&gt;" style="rhombus;whiteSpace=wrap;html=1;fontSize=15;fillColor=#FFFFFF;strokeColor=#000000;strokeWidth=2;" parent="WIyWlLk6GJQsqaUBKTNV-1" vertex="1">
          <mxGeometry x="-2334.99" y="1550" width="100" height="100" as="geometry" />
        </mxCell>
        <mxCell id="ZxPAX89eifIWjqfLQN8r-34" value="" style="edgeStyle=orthogonalEdgeStyle;rounded=0;orthogonalLoop=1;jettySize=auto;html=1;strokeWidth=3;fontSize=19;" parent="WIyWlLk6GJQsqaUBKTNV-1" source="ZxPAX89eifIWjqfLQN8r-55" target="ZxPAX89eifIWjqfLQN8r-36" edge="1">
          <mxGeometry relative="1" as="geometry">
            <mxPoint x="-2285.053333333333" y="2199" as="sourcePoint" />
            <mxPoint x="-2282.514999999999" y="2379" as="targetPoint" />
          </mxGeometry>
        </mxCell>
        <mxCell id="ZxPAX89eifIWjqfLQN8r-36" value="&lt;span style=&quot;font-size: 20px;&quot;&gt;&lt;b&gt;FINAL&lt;/b&gt;&lt;/span&gt;" style="ellipse;whiteSpace=wrap;html=1;align=center;strokeWidth=2;fontSize=15;fillColor=#66B2FF;strokeColor=#000000;" parent="WIyWlLk6GJQsqaUBKTNV-1" vertex="1">
          <mxGeometry x="-2322.6" y="2256" width="85.25214536358267" height="65.07055491809282" as="geometry" />
        </mxCell>
        <mxCell id="ZxPAX89eifIWjqfLQN8r-46" style="edgeStyle=orthogonalEdgeStyle;rounded=0;orthogonalLoop=1;jettySize=auto;html=1;strokeWidth=3;fontSize=19;" parent="WIyWlLk6GJQsqaUBKTNV-1" source="ZxPAX89eifIWjqfLQN8r-38" edge="1">
          <mxGeometry relative="1" as="geometry">
            <mxPoint x="-2282" y="1286" as="targetPoint" />
          </mxGeometry>
        </mxCell>
        <mxCell id="ZxPAX89eifIWjqfLQN8r-38" value="&lt;span style=&quot;font-size: 20px;&quot;&gt;Dimensiones y puntos de muestreo&lt;br&gt;&lt;/span&gt;&lt;div style=&quot;&quot;&gt;&lt;span style=&quot;font-size: 20px; vertical-align: sub; background-color: initial;&quot;&gt;Distancia z del objeto hasta el holograma&amp;nbsp;&lt;br&gt;&lt;/span&gt;&lt;/div&gt;" style="shape=parallelogram;perimeter=parallelogramPerimeter;whiteSpace=wrap;html=1;fixedSize=1;fontSize=15;fillColor=#FFFFFF;strokeColor=#000000;strokeWidth=2;align=center;" parent="WIyWlLk6GJQsqaUBKTNV-1" vertex="1">
          <mxGeometry x="-2115.97" y="1257" width="415" height="60" as="geometry" />
        </mxCell>
        <mxCell id="ZxPAX89eifIWjqfLQN8r-74" style="edgeStyle=orthogonalEdgeStyle;rounded=0;orthogonalLoop=1;jettySize=auto;html=1;strokeWidth=3;fontSize=20;" parent="WIyWlLk6GJQsqaUBKTNV-1" source="ZxPAX89eifIWjqfLQN8r-49" edge="1">
          <mxGeometry relative="1" as="geometry">
            <mxPoint x="-2110" y="1597" as="targetPoint" />
            <Array as="points">
              <mxPoint x="-1799" y="1476" />
              <mxPoint x="-2110" y="1476" />
            </Array>
          </mxGeometry>
        </mxCell>
        <mxCell id="ZxPAX89eifIWjqfLQN8r-79" style="edgeStyle=orthogonalEdgeStyle;rounded=0;orthogonalLoop=1;jettySize=auto;html=1;strokeWidth=3;fontSize=20;" parent="WIyWlLk6GJQsqaUBKTNV-1" source="ZxPAX89eifIWjqfLQN8r-49" edge="1">
          <mxGeometry relative="1" as="geometry">
            <mxPoint x="-2110" y="2017" as="targetPoint" />
            <Array as="points">
              <mxPoint x="-1797" y="1938" />
              <mxPoint x="-2110" y="1938" />
            </Array>
          </mxGeometry>
        </mxCell>
        <mxCell id="ZxPAX89eifIWjqfLQN8r-49" value="&lt;span style=&quot;font-size: 20px;&quot;&gt;Longitud de onda&lt;/span&gt;&lt;br style=&quot;border-color: var(--border-color); font-size: 20px;&quot;&gt;&lt;span style=&quot;font-size: 20px;&quot;&gt;Distancia entre planos&amp;nbsp;&lt;/span&gt;" style="shape=parallelogram;perimeter=parallelogramPerimeter;whiteSpace=wrap;html=1;fixedSize=1;fontSize=15;fillColor=#FFFFFF;strokeColor=#000000;strokeWidth=2;align=center;" parent="WIyWlLk6GJQsqaUBKTNV-1" vertex="1">
          <mxGeometry x="-1919" y="1776" width="236" height="66" as="geometry" />
        </mxCell>
        <mxCell id="ZxPAX89eifIWjqfLQN8r-51" value="" style="edgeStyle=orthogonalEdgeStyle;rounded=0;orthogonalLoop=1;jettySize=auto;html=1;strokeWidth=3;fontSize=15;startArrow=none;exitX=0.5;exitY=1;exitDx=0;exitDy=0;" parent="WIyWlLk6GJQsqaUBKTNV-1" source="ZxPAX89eifIWjqfLQN8r-30" edge="1">
          <mxGeometry relative="1" as="geometry">
            <mxPoint x="-2284.9799999999996" y="1706" as="sourcePoint" />
            <mxPoint x="-2284.99" y="1720" as="targetPoint" />
            <Array as="points" />
          </mxGeometry>
        </mxCell>
        <mxCell id="ZxPAX89eifIWjqfLQN8r-55" value="&lt;span style=&quot;border-color: var(--border-color);&quot;&gt;&lt;span style=&quot;border-color: var(--border-color); font-size: 20px;&quot;&gt;U&lt;/span&gt;&lt;/span&gt;&lt;span style=&quot;border-color: var(--border-color); font-size: 20px;&quot;&gt;(x,y,0) del&amp;nbsp;&lt;/span&gt;&lt;span style=&quot;border-color: var(--border-color); font-size: 20px;&quot;&gt;objeto sintético&lt;/span&gt;" style="whiteSpace=wrap;html=1;fontSize=15;fillColor=#FFFFFF;strokeColor=#000000;strokeWidth=2;" parent="WIyWlLk6GJQsqaUBKTNV-1" vertex="1">
          <mxGeometry x="-2446" y="2155" width="330.03" height="50" as="geometry" />
        </mxCell>
        <mxCell id="ZxPAX89eifIWjqfLQN8r-63" value="&lt;font style=&quot;font-size: 20px;&quot;&gt;Propagación de Fresnel a una distancia z&amp;nbsp;&lt;/font&gt;" style="whiteSpace=wrap;html=1;fontSize=15;fillColor=#FFFFFF;strokeColor=#000000;strokeWidth=2;" parent="WIyWlLk6GJQsqaUBKTNV-1" vertex="1">
          <mxGeometry x="-2062" y="1565" width="221" height="70" as="geometry" />
        </mxCell>
        <mxCell id="ZxPAX89eifIWjqfLQN8r-66" value="" style="edgeStyle=elbowEdgeStyle;rounded=0;orthogonalLoop=1;jettySize=auto;html=1;strokeWidth=3;fontSize=19;exitX=0.5;exitY=1;exitDx=0;exitDy=0;" parent="WIyWlLk6GJQsqaUBKTNV-1" source="ZxPAX89eifIWjqfLQN8r-63" edge="1">
          <mxGeometry x="-0.0891" y="-6" relative="1" as="geometry">
            <mxPoint x="-2072.14" y="1716" as="sourcePoint" />
            <mxPoint x="-2283" y="1680" as="targetPoint" />
            <Array as="points">
              <mxPoint x="-1951" y="1660" />
            </Array>
            <mxPoint x="-1" as="offset" />
          </mxGeometry>
        </mxCell>
        <mxCell id="ZxPAX89eifIWjqfLQN8r-67" value="" style="edgeStyle=orthogonalEdgeStyle;rounded=0;orthogonalLoop=1;jettySize=auto;html=1;strokeWidth=3;fontSize=19;exitX=1;exitY=0.5;exitDx=0;exitDy=0;" parent="WIyWlLk6GJQsqaUBKTNV-1" source="ZxPAX89eifIWjqfLQN8r-28" target="ZxPAX89eifIWjqfLQN8r-68" edge="1">
          <mxGeometry relative="1" as="geometry">
            <mxPoint x="-2214.99" y="1996" as="sourcePoint" />
            <mxPoint x="-1982.14" y="1996" as="targetPoint" />
          </mxGeometry>
        </mxCell>
        <mxCell id="ZxPAX89eifIWjqfLQN8r-68" value="&lt;span style=&quot;font-size: 20px;&quot;&gt;Propagación de Fresnel a una distancia -z&amp;nbsp;&amp;nbsp;&lt;/span&gt;" style="whiteSpace=wrap;html=1;fontSize=15;fillColor=#FFFFFF;strokeColor=#000000;strokeWidth=2;" parent="WIyWlLk6GJQsqaUBKTNV-1" vertex="1">
          <mxGeometry x="-2062" y="1983" width="216" height="70" as="geometry" />
        </mxCell>
        <mxCell id="ZxPAX89eifIWjqfLQN8r-69" value="" style="edgeStyle=elbowEdgeStyle;rounded=0;orthogonalLoop=1;jettySize=auto;html=1;strokeWidth=3;fontSize=19;exitX=0.5;exitY=1;exitDx=0;exitDy=0;" parent="WIyWlLk6GJQsqaUBKTNV-1" source="ZxPAX89eifIWjqfLQN8r-68" edge="1">
          <mxGeometry relative="1" as="geometry">
            <mxPoint x="-2052.14" y="2106" as="sourcePoint" />
            <mxPoint x="-2282" y="2096" as="targetPoint" />
            <Array as="points">
              <mxPoint x="-1952" y="2080" />
            </Array>
          </mxGeometry>
        </mxCell>
        <mxCell id="ZxPAX89eifIWjqfLQN8r-84" value="&lt;div style=&quot;text-align: center;&quot;&gt;Sí&lt;br&gt;&lt;/div&gt;" style="text;whiteSpace=wrap;html=1;fontSize=20;" parent="WIyWlLk6GJQsqaUBKTNV-1" vertex="1">
          <mxGeometry x="-2322.6" y="2077" width="26.92" height="30.92" as="geometry" />
        </mxCell>
        <mxCell id="ZxPAX89eifIWjqfLQN8r-86" value="&lt;div style=&quot;text-align: center;&quot;&gt;Sí&lt;br&gt;&lt;/div&gt;" style="text;whiteSpace=wrap;html=1;fontSize=20;" parent="WIyWlLk6GJQsqaUBKTNV-1" vertex="1">
          <mxGeometry x="-2326" y="1660" width="26.92" height="30.92" as="geometry" />
        </mxCell>
        <mxCell id="ZxPAX89eifIWjqfLQN8r-87" value="&lt;div style=&quot;text-align: center;&quot;&gt;No&lt;/div&gt;&lt;div style=&quot;text-align: center;&quot;&gt;&lt;br&gt;&lt;/div&gt;" style="text;whiteSpace=wrap;html=1;fontSize=20;" parent="WIyWlLk6GJQsqaUBKTNV-1" vertex="1">
          <mxGeometry x="-2183" y="1559" width="26.92" height="30.92" as="geometry" />
        </mxCell>
        <mxCell id="ZxPAX89eifIWjqfLQN8r-91" value="&lt;div style=&quot;text-align: center;&quot;&gt;No&lt;/div&gt;&lt;div style=&quot;text-align: center;&quot;&gt;&lt;br&gt;&lt;/div&gt;" style="text;whiteSpace=wrap;html=1;fontSize=20;" parent="WIyWlLk6GJQsqaUBKTNV-1" vertex="1">
          <mxGeometry x="-2183" y="1978" width="26.92" height="30.92" as="geometry" />
        </mxCell>
        <mxCell id="SIC9V6K27LNCfWXc7zYs-0" value="&lt;font style=&quot;font-size: 20px;&quot;&gt;Registro de tres hologramas desfasados entre sí&lt;/font&gt;" style="whiteSpace=wrap;html=1;fontSize=15;fillColor=#FFFFFF;strokeColor=#000000;strokeWidth=2;" parent="WIyWlLk6GJQsqaUBKTNV-1" vertex="1">
          <mxGeometry x="-2440" y="1722" width="332" height="57" as="geometry" />
        </mxCell>
        <mxCell id="SIC9V6K27LNCfWXc7zYs-1" value="&lt;span style=&quot;font-size: 20px;&quot;&gt;Reconstrucción de la onda objeto sobre el plano del holograma&lt;/span&gt;" style="whiteSpace=wrap;html=1;fontSize=15;fillColor=#FFFFFF;strokeColor=#000000;strokeWidth=2;" parent="WIyWlLk6GJQsqaUBKTNV-1" vertex="1">
          <mxGeometry x="-2440.96" y="1847" width="332.96" height="57" as="geometry" />
        </mxCell>
        <mxCell id="SIC9V6K27LNCfWXc7zYs-2" value="" style="edgeStyle=orthogonalEdgeStyle;rounded=0;orthogonalLoop=1;jettySize=auto;html=1;strokeWidth=3;fontSize=15;startArrow=none;exitX=0.5;exitY=1;exitDx=0;exitDy=0;" parent="WIyWlLk6GJQsqaUBKTNV-1" edge="1">
          <mxGeometry relative="1" as="geometry">
            <mxPoint x="-2282" y="1779" as="sourcePoint" />
            <mxPoint x="-2282" y="1849" as="targetPoint" />
            <Array as="points" />
          </mxGeometry>
        </mxCell>
        <mxCell id="SIC9V6K27LNCfWXc7zYs-5" style="edgeStyle=orthogonalEdgeStyle;rounded=0;orthogonalLoop=1;jettySize=auto;html=1;strokeWidth=3;" parent="WIyWlLk6GJQsqaUBKTNV-1" source="SIC9V6K27LNCfWXc7zYs-3" edge="1">
          <mxGeometry relative="1" as="geometry">
            <mxPoint x="-2282" y="1407" as="targetPoint" />
          </mxGeometry>
        </mxCell>
        <mxCell id="SIC9V6K27LNCfWXc7zYs-3" value="&lt;span style=&quot;background-color: initial; font-size: 20px;&quot;&gt;Retardos de fase del haz de referencia&lt;/span&gt;" style="shape=parallelogram;perimeter=parallelogramPerimeter;whiteSpace=wrap;html=1;fixedSize=1;fontSize=15;fillColor=#FFFFFF;strokeColor=#000000;strokeWidth=2;align=center;" parent="WIyWlLk6GJQsqaUBKTNV-1" vertex="1">
          <mxGeometry x="-2120" y="1384" width="418" height="47" as="geometry" />
        </mxCell>
        <mxCell id="SIC9V6K27LNCfWXc7zYs-9" value="&lt;div style=&quot;text-align: center;&quot;&gt;&lt;span style=&quot;background-color: initial; font-size: 20px;&quot;&gt;&lt;font color=&quot;#009900&quot;&gt;Simulación del registro de los hologramas&lt;/font&gt;&lt;/span&gt;&lt;/div&gt;" style="text;whiteSpace=wrap;html=1;" parent="WIyWlLk6GJQsqaUBKTNV-1" vertex="1">
          <mxGeometry x="-1973" y="1187.54" width="249" height="62" as="geometry" />
        </mxCell>
        <mxCell id="SIC9V6K27LNCfWXc7zYs-10" value="&lt;div style=&quot;text-align: center;&quot;&gt;&lt;span style=&quot;font-size: 20px;&quot;&gt;&lt;font color=&quot;#cc00cc&quot;&gt;Simulación de la reconstrucción del objeto&lt;/font&gt;&lt;/span&gt;&lt;/div&gt;" style="text;whiteSpace=wrap;html=1;" parent="WIyWlLk6GJQsqaUBKTNV-1" vertex="1">
          <mxGeometry x="-1975.5" y="2257.54" width="254" height="62" as="geometry" />
        </mxCell>
      </root>
    </mxGraphModel>
  </diagram>
</mxfile>
